<?xml version="1.0" encoding="UTF-8"?>
<mxfile host="app.diagrams.net" modified="2023-10-31T08:53:33.770Z" agent="Mozilla/5.0 (Macintosh; Intel Mac OS X 10_15_7) AppleWebKit/537.36 (KHTML, like Gecko) Chrome/118.0.0.0 Safari/537.36" etag="l-rKKhd83ZaUv5DaF1fJ" version="22.0.8" type="device">
  <diagram name="Page-1" id="CLGDO3x09eIWOjiuS5SW">
    <mxGraphModel dx="1080" dy="715" grid="1" gridSize="10" guides="1" tooltips="1" connect="1" arrows="1" fold="1" page="1" pageScale="1" pageWidth="1169" pageHeight="827" math="0" shadow="0">
      <root>
        <mxCell id="0" />
        <mxCell id="1" parent="0" />
        <mxCell id="6B9Jg6zaGtnaMq5gHaIX-1" value="" style="sketch=0;points=[[0,0,0],[0.25,0,0],[0.5,0,0],[0.75,0,0],[1,0,0],[0,1,0],[0.25,1,0],[0.5,1,0],[0.75,1,0],[1,1,0],[0,0.25,0],[0,0.5,0],[0,0.75,0],[1,0.25,0],[1,0.5,0],[1,0.75,0]];outlineConnect=0;fontColor=#232F3E;fillColor=#8C4FFF;strokeColor=#ffffff;dashed=0;verticalLabelPosition=bottom;verticalAlign=top;align=center;html=1;fontSize=12;fontStyle=0;aspect=fixed;shape=mxgraph.aws4.resourceIcon;resIcon=mxgraph.aws4.route_53;" parent="1" vertex="1">
          <mxGeometry x="50" y="360" width="78" height="78" as="geometry" />
        </mxCell>
        <mxCell id="6B9Jg6zaGtnaMq5gHaIX-2" value="" style="endArrow=classic;html=1;rounded=0;exitX=1;exitY=0.5;exitDx=0;exitDy=0;exitPerimeter=0;dashed=1;dashPattern=8 8;" parent="1" source="6B9Jg6zaGtnaMq5gHaIX-47" target="6B9Jg6zaGtnaMq5gHaIX-3" edge="1">
          <mxGeometry width="50" height="50" relative="1" as="geometry">
            <mxPoint x="570" y="610" as="sourcePoint" />
            <mxPoint x="280" y="413" as="targetPoint" />
          </mxGeometry>
        </mxCell>
        <mxCell id="6B9Jg6zaGtnaMq5gHaIX-30" value="" style="edgeStyle=orthogonalEdgeStyle;rounded=0;orthogonalLoop=1;jettySize=auto;html=1;entryX=0;entryY=0.5;entryDx=0;entryDy=0;entryPerimeter=0;" parent="1" source="6B9Jg6zaGtnaMq5gHaIX-3" target="6B9Jg6zaGtnaMq5gHaIX-24" edge="1">
          <mxGeometry relative="1" as="geometry">
            <mxPoint x="430.0588235294117" y="710" as="targetPoint" />
            <Array as="points">
              <mxPoint x="520" y="430" />
              <mxPoint x="520" y="720" />
              <mxPoint x="680" y="720" />
            </Array>
          </mxGeometry>
        </mxCell>
        <mxCell id="6B9Jg6zaGtnaMq5gHaIX-53" value="$default" style="edgeLabel;html=1;align=center;verticalAlign=middle;resizable=0;points=[];" parent="6B9Jg6zaGtnaMq5gHaIX-30" vertex="1" connectable="0">
          <mxGeometry x="0.7596" y="-1" relative="1" as="geometry">
            <mxPoint x="-16" y="-2" as="offset" />
          </mxGeometry>
        </mxCell>
        <mxCell id="6B9Jg6zaGtnaMq5gHaIX-32" value="" style="edgeStyle=orthogonalEdgeStyle;rounded=0;orthogonalLoop=1;jettySize=auto;html=1;entryX=0;entryY=0.5;entryDx=0;entryDy=0;entryPerimeter=0;" parent="1" source="6B9Jg6zaGtnaMq5gHaIX-3" target="6B9Jg6zaGtnaMq5gHaIX-16" edge="1">
          <mxGeometry relative="1" as="geometry">
            <mxPoint x="389.0000000000002" y="541" as="targetPoint" />
            <Array as="points">
              <mxPoint x="560" y="420" />
              <mxPoint x="560" y="559" />
            </Array>
          </mxGeometry>
        </mxCell>
        <mxCell id="6B9Jg6zaGtnaMq5gHaIX-52" value="/assets/*" style="edgeLabel;html=1;align=center;verticalAlign=middle;resizable=0;points=[];" parent="6B9Jg6zaGtnaMq5gHaIX-32" vertex="1" connectable="0">
          <mxGeometry x="0.6315" y="1" relative="1" as="geometry">
            <mxPoint x="12" y="1" as="offset" />
          </mxGeometry>
        </mxCell>
        <mxCell id="6B9Jg6zaGtnaMq5gHaIX-34" value="" style="edgeStyle=orthogonalEdgeStyle;rounded=0;orthogonalLoop=1;jettySize=auto;html=1;entryX=0;entryY=0.5;entryDx=0;entryDy=0;entryPerimeter=0;" parent="1" source="6B9Jg6zaGtnaMq5gHaIX-3" target="6B9Jg6zaGtnaMq5gHaIX-21" edge="1">
          <mxGeometry relative="1" as="geometry">
            <mxPoint x="585" y="344.0588235294117" as="targetPoint" />
          </mxGeometry>
        </mxCell>
        <mxCell id="6B9Jg6zaGtnaMq5gHaIX-51" value="/_next/static/*" style="edgeLabel;html=1;align=center;verticalAlign=middle;resizable=0;points=[];" parent="6B9Jg6zaGtnaMq5gHaIX-34" vertex="1" connectable="0">
          <mxGeometry x="0.5461" relative="1" as="geometry">
            <mxPoint x="-2" as="offset" />
          </mxGeometry>
        </mxCell>
        <mxCell id="6B9Jg6zaGtnaMq5gHaIX-39" value="" style="edgeStyle=orthogonalEdgeStyle;rounded=0;orthogonalLoop=1;jettySize=auto;html=1;" parent="1" source="6B9Jg6zaGtnaMq5gHaIX-3" target="6B9Jg6zaGtnaMq5gHaIX-41" edge="1">
          <mxGeometry relative="1" as="geometry">
            <mxPoint x="680" y="250.05882352941194" as="targetPoint" />
            <Array as="points">
              <mxPoint x="560" y="380" />
              <mxPoint x="560" y="250" />
            </Array>
          </mxGeometry>
        </mxCell>
        <mxCell id="6B9Jg6zaGtnaMq5gHaIX-50" value="/_next/image*" style="edgeLabel;html=1;align=center;verticalAlign=middle;resizable=0;points=[];" parent="6B9Jg6zaGtnaMq5gHaIX-39" vertex="1" connectable="0">
          <mxGeometry x="0.6879" y="-1" relative="1" as="geometry">
            <mxPoint as="offset" />
          </mxGeometry>
        </mxCell>
        <mxCell id="6B9Jg6zaGtnaMq5gHaIX-3" value="" style="sketch=0;points=[[0,0,0],[0.25,0,0],[0.5,0,0],[0.75,0,0],[1,0,0],[0,1,0],[0.25,1,0],[0.5,1,0],[0.75,1,0],[1,1,0],[0,0.25,0],[0,0.5,0],[0,0.75,0],[1,0.25,0],[1,0.5,0],[1,0.75,0]];outlineConnect=0;fontColor=#232F3E;fillColor=#8C4FFF;strokeColor=#ffffff;dashed=0;verticalLabelPosition=bottom;verticalAlign=top;align=center;html=1;fontSize=12;fontStyle=0;aspect=fixed;shape=mxgraph.aws4.resourceIcon;resIcon=mxgraph.aws4.cloudfront;" parent="1" vertex="1">
          <mxGeometry x="350" y="360" width="78" height="78" as="geometry" />
        </mxCell>
        <mxCell id="6B9Jg6zaGtnaMq5gHaIX-16" value="" style="sketch=0;points=[[0,0,0],[0.25,0,0],[0.5,0,0],[0.75,0,0],[1,0,0],[0,1,0],[0.25,1,0],[0.5,1,0],[0.75,1,0],[1,1,0],[0,0.25,0],[0,0.5,0],[0,0.75,0],[1,0.25,0],[1,0.5,0],[1,0.75,0]];outlineConnect=0;fontColor=#232F3E;fillColor=#7AA116;strokeColor=#ffffff;dashed=0;verticalLabelPosition=bottom;verticalAlign=top;align=center;html=1;fontSize=12;fontStyle=0;aspect=fixed;shape=mxgraph.aws4.resourceIcon;resIcon=mxgraph.aws4.s3;" parent="1" vertex="1">
          <mxGeometry x="680" y="520" width="78" height="78" as="geometry" />
        </mxCell>
        <mxCell id="6B9Jg6zaGtnaMq5gHaIX-21" value="" style="sketch=0;points=[[0,0,0],[0.25,0,0],[0.5,0,0],[0.75,0,0],[1,0,0],[0,1,0],[0.25,1,0],[0.5,1,0],[0.75,1,0],[1,1,0],[0,0.25,0],[0,0.5,0],[0,0.75,0],[1,0.25,0],[1,0.5,0],[1,0.75,0]];outlineConnect=0;fontColor=#232F3E;fillColor=#7AA116;strokeColor=#ffffff;dashed=0;verticalLabelPosition=bottom;verticalAlign=top;align=center;html=1;fontSize=12;fontStyle=0;aspect=fixed;shape=mxgraph.aws4.resourceIcon;resIcon=mxgraph.aws4.s3;" parent="1" vertex="1">
          <mxGeometry x="679" y="360" width="78" height="78" as="geometry" />
        </mxCell>
        <mxCell id="6B9Jg6zaGtnaMq5gHaIX-26" value="" style="edgeStyle=orthogonalEdgeStyle;rounded=0;orthogonalLoop=1;jettySize=auto;html=1;entryX=0;entryY=0.5;entryDx=0;entryDy=0;entryPerimeter=0;" parent="1" source="6B9Jg6zaGtnaMq5gHaIX-24" target="6B9Jg6zaGtnaMq5gHaIX-28" edge="1">
          <mxGeometry relative="1" as="geometry">
            <mxPoint x="960" y="699" as="targetPoint" />
          </mxGeometry>
        </mxCell>
        <mxCell id="6B9Jg6zaGtnaMq5gHaIX-24" value="" style="sketch=0;points=[[0,0,0],[0.25,0,0],[0.5,0,0],[0.75,0,0],[1,0,0],[0,1,0],[0.25,1,0],[0.5,1,0],[0.75,1,0],[1,1,0],[0,0.25,0],[0,0.5,0],[0,0.75,0],[1,0.25,0],[1,0.5,0],[1,0.75,0]];outlineConnect=0;fontColor=#232F3E;fillColor=#E7157B;strokeColor=#ffffff;dashed=0;verticalLabelPosition=bottom;verticalAlign=top;align=center;html=1;fontSize=12;fontStyle=0;aspect=fixed;shape=mxgraph.aws4.resourceIcon;resIcon=mxgraph.aws4.api_gateway;" parent="1" vertex="1">
          <mxGeometry x="680" y="680" width="78" height="78" as="geometry" />
        </mxCell>
        <mxCell id="6B9Jg6zaGtnaMq5gHaIX-28" value="" style="sketch=0;points=[[0,0,0],[0.25,0,0],[0.5,0,0],[0.75,0,0],[1,0,0],[0,1,0],[0.25,1,0],[0.5,1,0],[0.75,1,0],[1,1,0],[0,0.25,0],[0,0.5,0],[0,0.75,0],[1,0.25,0],[1,0.5,0],[1,0.75,0]];outlineConnect=0;fontColor=#232F3E;fillColor=#ED7100;strokeColor=#ffffff;dashed=0;verticalLabelPosition=bottom;verticalAlign=top;align=center;html=1;fontSize=12;fontStyle=0;aspect=fixed;shape=mxgraph.aws4.resourceIcon;resIcon=mxgraph.aws4.lambda;" parent="1" vertex="1">
          <mxGeometry x="960" y="680" width="78" height="78" as="geometry" />
        </mxCell>
        <mxCell id="6B9Jg6zaGtnaMq5gHaIX-41" value="" style="sketch=0;outlineConnect=0;fontColor=#232F3E;gradientColor=none;fillColor=#ED7100;strokeColor=none;dashed=0;verticalLabelPosition=bottom;verticalAlign=top;align=center;html=1;fontSize=12;fontStyle=0;aspect=fixed;pointerEvents=1;shape=mxgraph.aws4.lambda_function;" parent="1" vertex="1">
          <mxGeometry x="678" y="210" width="80" height="80" as="geometry" />
        </mxCell>
        <mxCell id="6B9Jg6zaGtnaMq5gHaIX-43" value="" style="sketch=0;outlineConnect=0;fontColor=#232F3E;gradientColor=none;fillColor=#ED7100;strokeColor=none;dashed=0;verticalLabelPosition=bottom;verticalAlign=top;align=center;html=1;fontSize=12;fontStyle=0;aspect=fixed;pointerEvents=1;shape=mxgraph.aws4.lambda_function;" parent="1" vertex="1">
          <mxGeometry x="679" y="50" width="80" height="80" as="geometry" />
        </mxCell>
        <mxCell id="6B9Jg6zaGtnaMq5gHaIX-44" value="" style="edgeStyle=orthogonalEdgeStyle;rounded=0;orthogonalLoop=1;jettySize=auto;html=1;" parent="1" source="6B9Jg6zaGtnaMq5gHaIX-3" target="6B9Jg6zaGtnaMq5gHaIX-43" edge="1">
          <mxGeometry relative="1" as="geometry">
            <mxPoint x="430" y="370" as="sourcePoint" />
            <mxPoint x="660" y="90" as="targetPoint" />
            <Array as="points">
              <mxPoint x="520" y="370" />
              <mxPoint x="520" y="90" />
            </Array>
          </mxGeometry>
        </mxCell>
        <mxCell id="6B9Jg6zaGtnaMq5gHaIX-49" value="/_next/image/*" style="edgeLabel;html=1;align=center;verticalAlign=middle;resizable=0;points=[];" parent="6B9Jg6zaGtnaMq5gHaIX-44" vertex="1" connectable="0">
          <mxGeometry x="0.6373" y="-4" relative="1" as="geometry">
            <mxPoint x="20" y="-4" as="offset" />
          </mxGeometry>
        </mxCell>
        <mxCell id="6B9Jg6zaGtnaMq5gHaIX-45" value="Route 53" style="text;html=1;strokeColor=none;fillColor=none;align=center;verticalAlign=middle;whiteSpace=wrap;rounded=0;fontStyle=0" parent="1" vertex="1">
          <mxGeometry x="59" y="330" width="60" height="30" as="geometry" />
        </mxCell>
        <mxCell id="6B9Jg6zaGtnaMq5gHaIX-46" value="your.domain" style="text;html=1;strokeColor=none;fillColor=none;align=center;verticalAlign=middle;whiteSpace=wrap;rounded=0;" parent="1" vertex="1">
          <mxGeometry x="34" y="438" width="110" height="30" as="geometry" />
        </mxCell>
        <mxCell id="6B9Jg6zaGtnaMq5gHaIX-48" value="" style="endArrow=classic;html=1;rounded=0;exitX=1;exitY=0.5;exitDx=0;exitDy=0;exitPerimeter=0;dashed=1;dashPattern=8 8;" parent="1" source="6B9Jg6zaGtnaMq5gHaIX-1" target="6B9Jg6zaGtnaMq5gHaIX-47" edge="1">
          <mxGeometry width="50" height="50" relative="1" as="geometry">
            <mxPoint x="128" y="399" as="sourcePoint" />
            <mxPoint x="350" y="399" as="targetPoint" />
          </mxGeometry>
        </mxCell>
        <mxCell id="6B9Jg6zaGtnaMq5gHaIX-47" value="(optional)" style="text;html=1;strokeColor=none;fillColor=none;align=center;verticalAlign=middle;whiteSpace=wrap;rounded=0;" parent="1" vertex="1">
          <mxGeometry x="200" y="384" width="60" height="30" as="geometry" />
        </mxCell>
        <mxCell id="6B9Jg6zaGtnaMq5gHaIX-54" value="next_lambda" style="text;html=1;strokeColor=none;fillColor=none;align=center;verticalAlign=middle;whiteSpace=wrap;rounded=0;fontStyle=0" parent="1" vertex="1">
          <mxGeometry x="969" y="758" width="60" height="30" as="geometry" />
        </mxCell>
        <mxCell id="6B9Jg6zaGtnaMq5gHaIX-55" value="Lambda" style="text;html=1;align=center;verticalAlign=middle;resizable=0;points=[];autosize=1;strokeColor=none;fillColor=none;" parent="1" vertex="1">
          <mxGeometry x="964" y="650" width="70" height="30" as="geometry" />
        </mxCell>
        <mxCell id="6B9Jg6zaGtnaMq5gHaIX-56" value="API Gateway" style="text;html=1;align=center;verticalAlign=middle;resizable=0;points=[];autosize=1;strokeColor=none;fillColor=none;" parent="1" vertex="1">
          <mxGeometry x="674" y="650" width="90" height="30" as="geometry" />
        </mxCell>
        <mxCell id="6B9Jg6zaGtnaMq5gHaIX-57" value="api" style="text;html=1;align=center;verticalAlign=middle;resizable=0;points=[];autosize=1;strokeColor=none;fillColor=none;" parent="1" vertex="1">
          <mxGeometry x="699" y="758" width="40" height="30" as="geometry" />
        </mxCell>
        <mxCell id="6B9Jg6zaGtnaMq5gHaIX-58" value="CloudFront" style="text;html=1;align=center;verticalAlign=middle;resizable=0;points=[];autosize=1;strokeColor=none;fillColor=none;" parent="1" vertex="1">
          <mxGeometry x="349" y="330" width="80" height="30" as="geometry" />
        </mxCell>
        <mxCell id="6B9Jg6zaGtnaMq5gHaIX-59" value="next_distribution" style="text;html=1;align=center;verticalAlign=middle;resizable=0;points=[];autosize=1;strokeColor=none;fillColor=none;" parent="1" vertex="1">
          <mxGeometry x="334" y="438" width="110" height="30" as="geometry" />
        </mxCell>
        <mxCell id="6B9Jg6zaGtnaMq5gHaIX-60" value="Lambda@Edge" style="text;html=1;align=center;verticalAlign=middle;resizable=0;points=[];autosize=1;strokeColor=none;fillColor=none;" parent="1" vertex="1">
          <mxGeometry x="663" y="20" width="110" height="30" as="geometry" />
        </mxCell>
        <mxCell id="6B9Jg6zaGtnaMq5gHaIX-61" value="Lambda@Edge" style="text;html=1;align=center;verticalAlign=middle;resizable=0;points=[];autosize=1;strokeColor=none;fillColor=none;" parent="1" vertex="1">
          <mxGeometry x="663" y="180" width="110" height="30" as="geometry" />
        </mxCell>
        <mxCell id="6B9Jg6zaGtnaMq5gHaIX-62" value="image-optimization" style="text;html=1;align=center;verticalAlign=middle;resizable=0;points=[];autosize=1;strokeColor=none;fillColor=none;" parent="1" vertex="1">
          <mxGeometry x="658" y="130" width="120" height="30" as="geometry" />
        </mxCell>
        <mxCell id="6B9Jg6zaGtnaMq5gHaIX-63" value="image-redirection" style="text;html=1;align=center;verticalAlign=middle;resizable=0;points=[];autosize=1;strokeColor=none;fillColor=none;" parent="1" vertex="1">
          <mxGeometry x="658" y="290" width="120" height="30" as="geometry" />
        </mxCell>
        <mxCell id="6B9Jg6zaGtnaMq5gHaIX-64" value="S3 Bucket" style="text;html=1;align=center;verticalAlign=middle;resizable=0;points=[];autosize=1;strokeColor=none;fillColor=none;" parent="1" vertex="1">
          <mxGeometry x="679" y="330" width="80" height="30" as="geometry" />
        </mxCell>
        <mxCell id="6B9Jg6zaGtnaMq5gHaIX-65" value="S3 Bucket" style="text;html=1;align=center;verticalAlign=middle;resizable=0;points=[];autosize=1;strokeColor=none;fillColor=none;" parent="1" vertex="1">
          <mxGeometry x="679" y="490" width="80" height="30" as="geometry" />
        </mxCell>
        <mxCell id="6B9Jg6zaGtnaMq5gHaIX-66" value="static_assets_bucket" style="text;html=1;align=center;verticalAlign=middle;resizable=0;points=[];autosize=1;strokeColor=none;fillColor=none;" parent="1" vertex="1">
          <mxGeometry x="653" y="438" width="130" height="30" as="geometry" />
        </mxCell>
        <mxCell id="6B9Jg6zaGtnaMq5gHaIX-67" value="public_assets_bucket" style="text;html=1;align=center;verticalAlign=middle;resizable=0;points=[];autosize=1;strokeColor=none;fillColor=none;" parent="1" vertex="1">
          <mxGeometry x="648" y="598" width="140" height="30" as="geometry" />
        </mxCell>
      </root>
    </mxGraphModel>
  </diagram>
</mxfile>
